<svg xmlns="http://www.w3.org/2000/svg" viewBox="0 0 128 128" width="100%" height="100%">
  <defs>
    <linearGradient id="bgGrad" x1="0%" y1="0%" x2="100%" y2="100%">
      <stop offset="0%" stop-color="#0f172a" />
      <stop offset="100%" stop-color="#020617" />
    </linearGradient>
    <linearGradient id="primaryGrad" x1="0%" y1="0%" x2="100%" y2="100%">
      <stop offset="0%" stop-color="#06b6d4" />
      <stop offset="50%" stop-color="#0ea5e9" />
      <stop offset="100%" stop-color="#3b82f6" />
    </linearGradient>
    <linearGradient id="accentGrad" x1="0%" y1="0%" x2="100%" y2="100%">
      <stop offset="0%" stop-color="#14b8a6" />
      <stop offset="100%" stop-color="#06b6d4" />
    </linearGradient>
    <filter id="glow" x="-20%" y="-20%" width="140%" height="140%">
      <feGaussianBlur stdDeviation="3" result="blur" />
      <feComposite in="SourceGraphic" in2="blur" operator="over" />
    </filter>
  </defs>

  <!-- Base Hexagonal / Shield Container -->
  <rect x="6" y="6" width="116" height="116" rx="28" fill="url(#bgGrad)" stroke="#1e293b" stroke-width="3"/>
  <rect x="10" y="10" width="108" height="108" rx="24" fill="none" stroke="url(#primaryGrad)" stroke-width="2" opacity="0.6"/>

  <!-- Radar / Telemetry Grid Circles -->
  <circle cx="64" cy="64" r="44" fill="none" stroke="#1e293b" stroke-width="1.5" stroke-dasharray="4 4"/>
  <circle cx="64" cy="64" r="30" fill="none" stroke="#0ea5e9" stroke-width="1" opacity="0.4"/>
  <circle cx="64" cy="64" r="16" fill="none" stroke="#14b8a6" stroke-width="1.5" opacity="0.6"/>

  <!-- Crosshair Guides -->
  <line x1="16" y1="64" x2="112" y2="64" stroke="#0ea5e9" stroke-width="1" opacity="0.25"/>
  <line x1="64" y1="16" x2="64" y2="112" stroke="#0ea5e9" stroke-width="1" opacity="0.25"/>

  <!-- Stylized Telemetry Shield / U-Core -->
  <path d="M40 38 v34 c0 13.25 10.75 24 24 24 s24 -10.75 24 -24 V38" fill="none" stroke="url(#primaryGrad)" stroke-width="8" stroke-linecap="round" stroke-linejoin="round" filter="url(#glow)"/>
  
  <!-- Central Pulse Node -->
  <circle cx="64" cy="64" r="6" fill="#ffffff" filter="url(#glow)"/>
  <circle cx="64" cy="64" r="3" fill="#06b6d4"/>

  <!-- Real-time Status Stream Beacons -->
  <circle cx="92" cy="42" r="4.5" fill="#10b981" filter="url(#glow)"/>
  <circle cx="36" cy="86" r="4" fill="#f59e0b" opacity="0.9"/>
  <circle cx="40" cy="38" r="4" fill="#ffffff"/>
  <circle cx="88" cy="38" r="4" fill="#ffffff"/>
</svg>
